<?xml version="1.0" encoding="iso-8859-1"?>
<!-- Generator: Adobe Illustrator 19.0.0, SVG Export Plug-In . SVG Version: 6.00 Build 0)  -->
<svg version="1.1" id="Layer_1" xmlns="http://www.w3.org/2000/svg" xmlns:xlink="http://www.w3.org/1999/xlink" x="0px" y="0px"
	 viewBox="0 0 512 512" style="enable-background:new 0 0 512 512;" xml:space="preserve">
<polygon style="fill:#FF832F;" points="512,166.957 256,166.957 256,256 512,233.739 "/>
<polygon style="fill:#FFB833;" points="0,166.957 0,233.739 256,256 256,166.957 "/>
<polygon style="fill:#FF832F;" points="0,233.739 0,378.435 256,478.609 256,233.739 "/>
<polygon style="fill:#FF4F2A;" points="256,233.739 256,478.609 512,378.435 512,233.739 "/>
<polygon style="fill:#FFD485;" points="239.304,44.522 239.304,0 205.913,0 205.913,44.522 172.522,44.522 172.522,0 139.13,0 
	139.13,445.131 278.261,445.131 256,44.522 "/>
<polygon style="fill:#FFB833;" points="372.87,0 339.478,0 339.478,44.522 306.087,44.522 306.087,0 272.696,0 272.696,44.522 
	256,44.522 256,445.131 372.87,445.131 "/>
<path style="fill:#37AD36;" d="M256,411.826v66.783l256-33.391v-66.783C384,378.435,320,395.13,256,411.826z"/>
<rect x="205.913" y="122.435" style="fill:#FF832F;" width="33.391" height="44.522"/>
<rect x="272.696" y="122.435" style="fill:#FF4F2A;" width="33.391" height="44.522"/>
<path style="fill:#9BB335;" d="M0,512h512v-66.783c-256,0-256-66.783-512-66.783V512z"/>
<g>
</g>
<g>
</g>
<g>
</g>
<g>
</g>
<g>
</g>
<g>
</g>
<g>
</g>
<g>
</g>
<g>
</g>
<g>
</g>
<g>
</g>
<g>
</g>
<g>
</g>
<g>
</g>
<g>
</g>
</svg>
